# xmcd
#
# Track frame offsets:
#	150
#	5272
#	7441
#	9864
#	16455
#	25369
#	31424
#	40209
#	44812
#	54032
#	66498
#	80945
#	91927
#	101978
#	109110
#	118011
#	127738
#	149620
#	164380
#	178787
#	194536
#	207073
#	220573
#	231927
#	248653
#	257205
#	263563
#	270489
#	274182
#	282230
#	299354
#	309568
#	318400
#	325035
#	332562
#
# Disc length: 4506 seconds
#
# Revision: 1
# Processed by: cddbd v1.5.1PL2 Copyright (c) Steve Scherf et al.
# Submitted via: audiograbber 1.81.03
#
DISCID=03119823
DTITLE=бИССГ - ящЛОР - хЕОДЫЯъДОУ - тЕЯФГС - г еККэДА ТГ мЩЙТА 2
DYEAR=1900
DGENRE=
TTITLE0=амма биссг - осо евы жымг
TTITLE1=амма биссг - аутос поу пеяилемы
TTITLE2=амма биссг - йакглеяа йаимоуяциа лоу ацапг
TTITLE3=амма бисг - де с аккафы
TTITLE4=амма биссг - есыяоува
TTITLE5=амма биссг - сам йаи лема йалиа
TTITLE6=амма биссг - йакойаияимес диайопес
TTITLE7=амма биссг - еисаи
TTITLE8=амма биссг - лехуслемг покитеиа
TTITLE9=амма биссг - дыдейа
TTITLE10=яелос - ока дийа соу
TTITLE11=яелос - сталатгсе тоу яокоциоу
TTITLE12=яелос - поиа мувта с' ейкеье
TTITLE13=яелос - поиа муйта ле ейкеье
TTITLE14=яелос - о тяеккос
TTITLE15=яелос - пес пыс ле амталысес
TTITLE16=яелос - дем то лпояеис
TTITLE17=яелос - дем текиысале
TTITLE18=яелос - пакиойаияос
TTITLE19=хеодыяидоу - соу бафы дусйока
TTITLE20=хеодыяидоу - дем неяы посо се ацапы
TTITLE21=хеодыяидоу - йакг тувг
TTITLE22=хеодыяидоу - тыяа йкаис циати йкаис
TTITLE23=хеодыяидоу - дем хекы тетиоус жикоус
TTITLE24=хеодыяидоу - истояиа лоу 
TTITLE25=хеодыяидоу - йаллиа жояа
TTITLE26=теяфгс - жамасиа лоу пкамеутяа
TTITLE27=теяфгс - лас уповяеысес
TTITLE28=теяфгс - ха хека ма соум еды
TTITLE29=теяфгс - фгты та паяакоца
TTITLE30=теяфгс лпяос цйяелос йаи писы есу
TTITLE31=теяфгс - ти ха кес
TTITLE32=теяфгс - ла ти соу кеы
TTITLE33=теяфгс - ти хекеис апо лемаме
TTITLE34=теяфгс - опоиос токлгсеи
EXTD=
EXTT0=
EXTT1=
EXTT2=
EXTT3=
EXTT4=
EXTT5=
EXTT6=
EXTT7=
EXTT8=
EXTT9=
EXTT10=
EXTT11=
EXTT12=
EXTT13=
EXTT14=
EXTT15=
EXTT16=
EXTT17=
EXTT18=
EXTT19=
EXTT20=
EXTT21=
EXTT22=
EXTT23=
EXTT24=
EXTT25=
EXTT26=
EXTT27=
EXTT28=
EXTT29=
EXTT30=
EXTT31=
EXTT32=
EXTT33=
EXTT34=
PLAYORDER=
